<?xml version="1.0" standalone="no"?>
<!DOCTYPE svg PUBLIC "-//W3C//DTD SVG 20010904//EN"
 "http://www.w3.org/TR/2001/REC-SVG-20010904/DTD/svg10.dtd">
<svg version="1.0" xmlns="http://www.w3.org/2000/svg"
 width="2079.000000pt" height="2083.000000pt" viewBox="0 0 2079.000000 2083.000000"
 preserveAspectRatio="xMidYMid meet">

<g transform="translate(0.000000,2083.000000) scale(0.100000,-0.100000)"
fill="#000000" stroke="none">
<path d="M10351 20772 c-35 -68 -107 -473 -246 -1372 -47 -305 -95 -613 -108
-685 l-22 -130 -54 -18 c-59 -19 -161 -35 -431 -67 -1581 -188 -3025 -798
-4245 -1795 -498 -407 -996 -928 -1375 -1440 -687 -927 -1165 -1978 -1414
-3110 -76 -343 -118 -620 -166 -1090 -12 -115 -23 -211 -24 -212 -1 -1 -341
-58 -756 -128 -1102 -184 -1346 -230 -1447 -275 -151 -67 42 -112 1537 -363
l664 -112 33 -290 c43 -380 74 -591 129 -863 314 -1570 1076 -2999 2204 -4132
1125 -1130 2578 -1919 4125 -2240 228 -47 529 -95 850 -134 160 -20 309 -39
333 -42 23 -3 42 -8 42 -12 0 -9 87 -560 156 -992 93 -577 193 -1119 225
-1217 8 -25 16 -33 34 -33 61 0 94 154 280 1310 63 393 122 751 131 795 30
153 31 153 444 200 1718 196 3213 851 4505 1976 262 228 697 678 965 999 790
947 1389 2219 1654 3515 51 254 73 408 91 640 9 116 20 224 25 240 4 17 14 73
20 125 16 125 21 137 67 150 137 38 671 136 1348 245 599 98 803 141 835 180
28 34 -45 69 -145 68 -63 -1 -96 10 -92 29 3 18 -228 62 -1158 219 -462 77
-846 146 -854 153 -35 28 -52 96 -62 243 -18 268 -72 624 -145 948 -242 1082
-709 2144 -1318 2999 -625 876 -1432 1656 -2331 2250 -215 142 -201 134 -445
266 -113 61 -221 119 -240 130 -128 73 -452 221 -676 310 -601 238 -1510 448
-2281 526 -95 10 -178 21 -184 25 -7 4 -31 121 -54 260 -24 140 -53 279 -64
309 -12 30 -30 96 -41 145 -10 50 -30 133 -44 185 -54 200 -182 1044 -173
1145 4 53 -17 171 -35 192 -20 24 -47 14 -67 -25z m194 -1494 c31 -111 62
-286 150 -848 99 -632 315 -1991 360 -2265 77 -466 382 -2338 425 -2610 23
-143 89 -546 147 -895 58 -349 111 -664 116 -699 l11 -64 -510 -506 c-529
-525 -741 -728 -750 -718 -3 2 -8 31 -11 63 -3 33 -15 77 -26 99 l-21 40 0
3605 c-1 1983 1 3666 3 3741 1 75 9 162 16 193 8 33 14 126 14 229 2 214 18
554 31 626 6 30 10 56 10 58 0 2 4 3 10 3 5 0 16 -24 25 -52z m714 -1099 c963
-114 1778 -358 2631 -790 1088 -550 2026 -1342 2763 -2330 409 -549 745 -1153
993 -1786 240 -612 423 -1325 488 -1908 20 -177 40 -444 34 -450 -5 -5 -410
56 -828 126 -418 69 -390 62 -428 105 -41 48 -69 140 -112 374 -136 730 -405
1453 -793 2130 -183 319 -490 762 -711 1025 -88 105 -128 179 -132 244 -3 41
5 62 71 185 47 89 66 131 52 119 -12 -10 -25 -22 -29 -28 -4 -5 -12 3 -18 19
-11 29 -7 39 30 77 23 23 59 41 70 34 10 -6 26 62 16 72 -12 12 -154 -50 -282
-122 -73 -41 -136 -75 -142 -75 -5 0 -29 15 -53 34 -28 21 -61 36 -91 40 -52
8 -108 44 -263 170 -240 197 -371 294 -636 477 -231 159 -346 229 -574 353
-77 42 -147 81 -155 87 -39 26 -269 133 -385 179 -449 180 -937 311 -1432 385
-89 13 -176 31 -193 40 -70 36 -92 102 -140 410 -30 195 -124 751 -137 809
l-6 29 114 -7 c63 -4 188 -16 278 -27z m-1364 0 c14 -14 13 -29 -9 -160 -14
-79 -46 -286 -71 -459 -49 -336 -88 -544 -106 -566 -21 -26 -135 -55 -409
-103 -506 -90 -877 -197 -1370 -393 -210 -84 -661 -304 -855 -418 -317 -186
-644 -420 -900 -641 -181 -156 -281 -229 -314 -229 -16 0 -75 25 -132 55 -156
83 -241 123 -271 131 -25 5 -28 3 -28 -19 0 -14 43 -110 95 -214 52 -103 95
-195 95 -205 0 -21 -92 -146 -194 -262 -547 -628 -992 -1426 -1275 -2288 -110
-336 -170 -581 -246 -1006 -28 -157 -55 -246 -84 -275 -11 -12 -55 -26 -112
-38 -122 -25 -982 -167 -1034 -171 -39 -3 -40 -3 -45 37 -4 22 -12 51 -19 64
-18 32 -15 116 4 172 9 24 22 86 30 139 8 52 26 170 40 262 216 1424 875 2840
1834 3943 138 158 473 497 636 644 1031 925 2282 1575 3597 1866 252 56 563
105 948 149 77 9 179 1 195 -15z m1515 -1870 c179 -25 388 -75 650 -154 768
-230 1307 -502 1945 -983 232 -175 360 -279 360 -295 0 -19 -94 -79 -389 -248
-155 -89 -618 -359 -1031 -599 -412 -240 -844 -492 -960 -559 -196 -113 -277
-152 -291 -139 -17 17 -108 531 -259 1458 -52 322 -116 704 -141 850 -85 494
-114 671 -114 686 0 17 -4 17 230 -17z m-1794 -31 c-17 -127 -453 -2906 -463
-2948 -3 -14 -7 -28 -9 -32 -5 -8 -240 119 -524 284 -1140 662 -1616 939
-1788 1040 -112 65 -214 123 -227 128 -25 9 -140 94 -151 111 -7 13 20 57 55
87 59 53 313 253 418 330 663 486 1535 864 2343 1016 156 29 179 32 279 34
l74 2 -7 -52z m-3317 -1530 c31 -17 324 -188 651 -378 327 -191 854 -497 1170
-680 718 -416 908 -533 922 -568 14 -38 4 -211 -26 -432 -14 -102 -33 -234
-41 -295 -8 -60 -20 -127 -26 -148 -23 -85 -79 -99 -174 -42 -43 26 -66 34
-85 30 -65 -14 -230 136 -985 896 -758 763 -1045 1056 -1108 1131 -64 76 -101
143 -93 165 4 9 -26 50 -82 111 -78 87 -155 177 -191 225 -21 27 3 22 68 -15z
m8476 -108 c-61 -122 -216 -395 -470 -830 -133 -228 -318 -545 -410 -705 -547
-944 -792 -1355 -808 -1355 -143 0 -974 130 -1077 168 -17 6 150 177 1118
1143 1091 1091 1672 1662 1680 1655 2 -2 -13 -37 -33 -76z m-8741 -382 c40
-62 141 -225 223 -363 145 -242 244 -411 688 -1180 115 -198 275 -473 355
-610 81 -138 164 -282 183 -322 l37 -72 -28 -5 c-15 -3 -209 -35 -432 -71
-732 -119 -2101 -345 -2297 -380 -106 -19 -201 -35 -211 -35 -59 0 -87 161
-45 256 12 27 38 123 59 214 200 894 522 1587 1085 2340 111 149 280 340 300
340 6 0 43 -51 83 -112z m8891 50 c68 -75 261 -328 372 -488 315 -454 613
-1035 756 -1475 108 -332 249 -897 264 -1061 l6 -62 -39 4 c-494 54 -2910 452
-2976 491 -17 10 70 175 392 738 328 574 869 1493 1023 1735 75 119 122 180
138 180 4 0 33 -28 64 -62z m-5910 -2625 c130 -115 903 -880 1049 -1038 l101
-110 -75 -7 c-41 -3 -430 -11 -865 -18 -943 -14 -7899 -8 -7955 7 -30 8 -10
13 170 47 244 45 841 144 1785 296 380 62 1352 220 2160 351 809 132 1682 273
1940 315 259 41 706 115 995 164 289 49 539 89 555 89 24 1 51 -18 140 -96z
m10195 -1371 c189 -7 193 -7 130 -19 -354 -63 -740 -128 -1295 -218 -363 -58
-806 -130 -985 -160 -179 -30 -604 -100 -945 -155 -904 -146 -3116 -508 -3723
-609 l-522 -87 -21 22 c-17 18 -94 45 -94 33 0 -2 -22 12 -50 30 -27 19 -249
232 -492 474 -450 448 -493 498 -479 551 4 16 -10 37 -62 90 l-67 68 4205 -7
c2313 -4 4293 -10 4400 -13z m-8891 -4462 c0 -1741 -2 -3500 -6 -3910 l-7
-745 -47 285 c-135 812 -151 892 -181 945 -16 28 -40 75 -54 105 -28 58 -28
81 -9 310 5 53 -10 159 -79 565 -78 456 -89 513 -135 647 -73 217 -105 379
-97 488 4 48 11 101 15 118 7 24 -21 219 -120 839 -278 1738 -321 1999 -339
2043 -57 139 -94 294 -156 662 -93 545 -90 518 -75 575 7 26 12 72 12 100 l-2
53 138 142 c75 79 360 367 633 641 l495 497 6 -597 c3 -329 7 -2022 8 -3763z
m7837 3940 c-37 -874 -347 -1964 -826 -2905 -537 -1055 -1311 -1970 -2285
-2703 -947 -712 -1994 -1176 -3197 -1416 -445 -89 -891 -127 -953 -82 -13 9
-17 30 -17 93 0 66 4 89 25 130 19 40 32 103 61 299 52 348 93 594 105 626 20
54 93 76 414 128 642 103 1226 297 1867 621 486 245 878 506 1335 889 116 97
216 179 223 184 7 4 65 -22 146 -68 165 -93 254 -136 284 -136 18 0 22 6 22
31 0 40 -57 154 -85 169 -36 19 -86 107 -94 165 -4 30 -13 61 -20 69 -11 13
10 41 136 188 273 318 387 467 569 743 304 462 558 978 738 1504 134 391 204
685 287 1211 18 113 34 206 35 208 1 2 1194 207 1228 211 5 1 6 -65 2 -159z
m-15006 60 c543 -87 692 -113 704 -125 6 -7 38 -153 69 -326 84 -456 134 -662
247 -999 187 -563 445 -1098 764 -1585 171 -261 309 -442 594 -778 67 -79 122
-148 122 -151 0 -4 -43 -81 -96 -172 -132 -228 -152 -274 -118 -274 25 0 185
79 320 157 l121 71 171 -148 c213 -185 337 -285 477 -387 809 -587 1751 -989
2725 -1163 319 -57 450 -93 469 -128 12 -23 53 -258 96 -542 19 -129 49 -318
66 -419 31 -179 31 -185 13 -199 -31 -23 -386 -10 -600 22 -490 74 -1106 229
-1559 393 -196 70 -650 256 -810 331 -815 380 -1539 897 -2196 1569 -499 508
-972 1165 -1305 1808 -440 852 -724 1802 -819 2745 -5 47 -2 77 9 110 9 25 16
78 16 121 0 150 8 151 520 69z m1675 -271 c105 -17 352 -57 550 -90 198 -33
704 -116 1125 -185 882 -143 990 -163 990 -176 0 -43 -958 -1721 -1385 -2428
-134 -221 -146 -239 -160 -240 -6 0 -33 23 -60 50 -36 37 -57 50 -78 50 -64 0
-97 31 -252 240 -239 322 -409 603 -591 975 -216 443 -348 831 -460 1354 -42
194 -45 218 -34 255 7 23 16 43 21 46 4 3 1 35 -7 70 -31 135 -26 136 341 79z
m11469 35 c24 -9 20 -83 -15 -256 -181 -906 -537 -1721 -1079 -2474 -159 -220
-335 -424 -366 -424 -7 0 -25 20 -41 45 -22 35 -34 45 -55 45 -35 0 -81 40
-125 109 -72 111 -1218 2091 -1268 2190 -22 45 -26 62 -21 105 3 28 6 56 6 61
1 6 -8 35 -19 65 -14 41 -17 57 -8 62 14 7 76 18 827 138 311 50 873 142 1250
205 377 63 712 118 745 123 74 12 148 14 169 6z m-8214 -564 c434 -65 660
-111 660 -136 0 -19 -1668 -1693 -2150 -2159 -392 -378 -560 -535 -573 -535
-4 0 0 15 9 33 47 92 495 867 1024 1772 492 842 518 886 562 942 90 117 157
129 468 83z m4609 -1024 c653 -646 1826 -1828 1934 -1950 73 -81 64 -81 -88
-2 -193 102 -1168 665 -2182 1262 -421 248 -414 244 -448 244 -30 0 -109 39
-146 72 -30 27 -59 102 -59 154 0 20 11 68 24 107 13 40 26 92 30 117 4 25 23
149 42 275 39 263 69 417 91 458 l14 28 77 -69 c42 -38 362 -352 711 -696z
m-3564 -529 c3 -18 41 -252 85 -522 43 -269 127 -776 184 -1125 124 -746 206
-1272 206 -1317 0 -38 7 -37 -129 -17 -137 20 -329 62 -561 124 -327 87 -519
154 -924 324 -60 25 -113 46 -118 46 -14 0 -501 242 -593 294 -44 25 -98 56
-120 67 -90 49 -348 218 -470 309 -170 126 -206 168 -196 224 1 5 -13 24 -30
43 -20 20 -29 36 -23 42 5 4 270 160 589 346 319 186 882 516 1250 733 646
381 819 477 836 466 5 -2 11 -19 14 -37z m2915 -155 c157 -91 744 -432 1305
-760 561 -327 1023 -596 1027 -599 11 -6 -223 -207 -365 -314 -457 -345 -1189
-736 -1692 -904 -280 -94 -982 -265 -1087 -265 l-36 0 -7 75 c-9 87 -2 143 24
200 12 25 63 307 135 745 163 993 312 1815 356 1973 10 34 13 36 33 25 12 -6
150 -85 307 -176z"/>
<path d="M11142 20288 c3 -8 31 -16 66 -20 75 -8 124 -30 158 -72 26 -30 27
-32 21 -151 -10 -201 -113 -1095 -132 -1142 -26 -65 -71 -88 -167 -87 -53 0
-78 -3 -78 -11 0 -8 69 -19 208 -34 114 -12 270 -31 347 -42 169 -23 199 -23
85 0 -157 32 -201 75 -236 230 -15 66 -15 72 11 197 14 71 34 161 45 199 13
49 19 112 21 210 3 143 21 311 40 376 9 28 8 57 -6 133 -16 87 -33 127 -81
195 -3 4 -245 30 -282 31 -15 0 -22 -5 -20 -12z"/>
<path d="M8515 20232 c-3 -3 -13 -6 -23 -7 -22 -2 -91 -46 -117 -75 l-20 -23
20 6 c244 73 480 26 617 -121 59 -64 126 -185 152 -272 50 -167 62 -444 27
-582 -27 -104 -63 -171 -130 -241 -64 -68 -134 -116 -206 -141 -27 -10 -73
-29 -101 -42 -102 -49 -230 -52 -364 -8 -103 34 -179 90 -271 197 -154 182
-226 360 -236 587 -8 185 28 345 102 456 l44 65 -61 -53 c-172 -149 -271 -370
-254 -569 24 -288 184 -526 441 -654 148 -74 220 -89 420 -89 151 1 181 3 267
27 119 32 244 89 323 149 86 66 99 82 86 107 -9 16 -6 29 19 71 16 28 30 57
30 63 0 7 4 17 9 22 5 6 19 42 31 80 32 99 39 318 15 436 -45 227 -222 453
-433 556 -40 19 -78 36 -85 37 -7 2 -28 6 -47 10 -45 9 -247 15 -255 8z"/>
<path d="M11926 20162 l-39 -17 72 -18 c243 -58 371 -224 317 -411 -13 -44
-29 -70 -71 -114 -39 -39 -51 -58 -42 -64 6 -4 14 -8 17 -8 6 0 60 -51 82 -78
14 -17 22 -19 56 -11 83 18 194 75 172 89 -6 4 -11 9 -10 11 2 5 -8 35 -20 64
-15 35 -20 61 -30 143 -21 185 -169 363 -347 417 -63 19 -109 18 -157 -3z"/>
<path d="M11803 19448 c-45 -23 -55 -38 -25 -38 25 0 308 -457 462 -748 21
-40 41 -64 54 -67 12 -3 113 -27 226 -54 126 -30 209 -46 215 -40 5 6 1 9 -11
9 -65 0 -179 44 -265 103 -78 53 -243 316 -408 650 -61 123 -81 154 -114 178
-48 35 -78 36 -134 7z"/>
<path d="M14577 19426 c-4 -9 17 -23 55 -41 97 -45 148 -99 148 -158 0 -42
-35 -125 -215 -512 -314 -676 -307 -663 -384 -686 -35 -11 -48 -9 -103 10 -77
27 -90 29 -94 16 -2 -5 65 -41 149 -79 83 -38 292 -140 462 -226 413 -208 541
-250 769 -250 80 0 136 6 191 20 90 23 209 77 248 114 l27 25 -19 35 c-37 65
-36 95 4 171 90 173 116 261 116 392 0 91 -18 170 -57 258 -26 60 -98 177
-141 230 -140 171 -343 305 -462 305 l-55 0 82 -40 c314 -151 513 -416 512
-679 -1 -229 -186 -509 -400 -607 -32 -15 -61 -35 -63 -45 -8 -28 -105 -52
-180 -44 -228 25 -521 126 -644 223 -19 15 -48 55 -66 92 -25 53 -31 77 -31
130 0 59 4 72 44 140 24 41 112 217 195 390 83 173 163 333 177 355 50 80 52
180 6 270 -9 17 -19 45 -23 63 -6 30 -15 37 -83 69 -153 70 -160 73 -165 59z"/>
<path d="M5447 19238 c-92 -45 -166 -86 -164 -92 5 -13 7 -13 87 20 41 18 84
28 119 28 51 1 55 -1 95 -45 28 -32 71 -109 140 -255 55 -115 127 -265 160
-334 l61 -125 3 59 c2 35 -3 73 -11 95 -26 64 -145 317 -232 493 -47 95 -86
188 -88 205 -1 18 -2 33 -2 33 0 -1 -75 -37 -168 -82z"/>
<path d="M4165 18499 c-115 -77 -213 -143 -217 -147 -4 -4 -1 -15 6 -24 11
-16 16 -15 57 13 68 45 163 73 244 73 138 -1 132 3 236 -157 382 -586 505
-777 520 -812 39 -85 18 -145 -75 -217 -34 -26 -52 -46 -46 -52 6 -6 58 23
136 75 70 46 131 87 137 90 5 4 -12 29 -38 55 -26 27 -56 69 -66 93 -17 38
-87 149 -296 468 -62 95 -86 146 -108 229 -8 32 -31 85 -51 117 -20 32 -34 61
-30 64 7 7 162 -20 381 -68 394 -87 674 -165 1052 -293 140 -48 259 -83 268
-80 12 5 -1 18 -53 53 -38 25 -106 80 -152 121 -129 117 -136 121 -260 118
-94 -2 -115 1 -200 29 -186 61 -651 173 -716 173 -24 0 -75 -7 -116 -15 -75
-16 -112 -13 -163 13 -69 35 -225 176 -225 204 0 10 -3 18 -7 18 -5 0 -102
-64 -218 -141z"/>
</g>
</svg>
